<svg width="140" height="25" viewBox="0 0 140 25" fill="none" xmlns="http://www.w3.org/2000/svg">
<path fill-rule="evenodd" clip-rule="evenodd" d="M140 12.9971C140 12.6435 139.473 12.3044 138.536 12.0544C137.598 11.8044 136.326 11.6639 135 11.6639H17.0778L48.5458 3.27577C49.0107 3.15182 49.3794 3.00467 49.631 2.84272C49.8826 2.68077 50.0121 2.50719 50.0121 2.3319C50.0121 2.15661 49.8826 1.98303 49.631 1.82108C49.3794 1.65913 49.0107 1.51198 48.5458 1.38803C48.081 1.26408 47.5291 1.16576 46.9218 1.09868C46.3144 1.0316 45.6635 0.99707 45.0061 0.99707C44.3487 0.99707 43.6977 1.0316 43.0904 1.09868C42.483 1.16576 41.9311 1.26408 41.4663 1.38803L1.46884 12.0532C1.00324 12.177 0.633837 12.3242 0.381788 12.4861C0.12974 12.6481 0 12.8217 0 12.9971C0 13.1724 0.12974 13.3461 0.381788 13.508C0.633837 13.67 1.00324 13.8171 1.46884 13.9409L41.4663 24.6061C41.9311 24.7301 42.483 24.8284 43.0904 24.8955C43.6977 24.9625 44.3487 24.9971 45.0061 24.9971C45.6635 24.9971 46.3144 24.9625 46.9218 24.8955C47.5291 24.8284 48.081 24.7301 48.5458 24.6061C49.0107 24.4822 49.3794 24.335 49.631 24.1731C49.8826 24.0111 50.0121 23.8375 50.0121 23.6622C50.0121 23.4869 49.8826 23.3134 49.631 23.1514C49.3794 22.9895 49.0107 22.8423 48.5458 22.7184L17.0778 14.3302H135C136.326 14.3302 137.598 14.1898 138.536 13.9397C139.473 13.6897 140 13.3506 140 12.9971Z" fill="#FFA800"/>
</svg>
