<svg width="101" height="122" viewBox="0 0 101 122" fill="none" xmlns="http://www.w3.org/2000/svg">
<path d="M100.76 7.74408L100.118 0L93.6982 2.45844C82.6962 6.8501 70.9475 8.19777 59.4069 6.39194C47.28 4.22981 34.8675 6.15112 23.6711 11.9234C17.7355 14.8271 12.5264 19.3904 8.51802 25.1978C4.50963 31.0052 1.82928 37.8723 0.721012 45.1738C-0.71602 54.6061 0.00288382 64.3055 2.80738 73.3229C4.61319 68.6401 6.72336 64.1202 9.11999 59.8015C14.5563 50.6121 22.0891 43.3188 30.8931 38.7204C39.3747 34.2714 48.6454 32.1665 57.9625 32.5743C49.0928 34.1323 40.6028 37.7953 33.033 43.33C29.3817 45.9657 26.038 49.1257 23.0826 52.7335C20.2562 56.3396 17.7641 60.2738 15.6466 64.4725C11.6693 73.2492 8.83922 82.6513 7.24761 92.3758C5.53204 102.132 4.60084 112.048 4.46578 122H15.1651C15.668 113.075 16.7227 104.202 18.3214 95.4489C25.7437 100.054 34.0674 102.402 42.5019 102.271C50.3685 102.265 58.1541 100.447 65.3985 96.9239C106.109 76.9491 100.76 10.5098 100.76 7.74408Z" fill="#35CD7B"/>
</svg>
