<svg width="140" height="25" viewBox="0 0 140 25" fill="none" xmlns="http://www.w3.org/2000/svg">
<path fill-rule="evenodd" clip-rule="evenodd" d="M-3.24458e-06 12.9971C-3.24458e-06 13.3506 0.526744 13.6897 1.46437 13.9397C2.40199 14.1898 3.67368 14.3302 4.99968 14.3302L122.922 14.3302L91.4542 22.7184C90.9893 22.8423 90.6206 22.9895 90.369 23.1514C90.1174 23.3134 89.9879 23.4869 89.9879 23.6622C89.9879 23.8375 90.1174 24.0111 90.369 24.1731C90.6206 24.335 90.9893 24.4822 91.4542 24.6061C91.919 24.7301 92.4709 24.8284 93.0782 24.8955C93.6856 24.9625 94.3365 24.9971 94.9939 24.9971C95.6513 24.9971 96.3023 24.9625 96.9096 24.8955C97.517 24.8284 98.0689 24.7301 98.5337 24.6061L138.531 13.9409C138.997 13.8171 139.366 13.67 139.618 13.508C139.87 13.3461 140 13.1724 140 12.9971C140 12.8217 139.87 12.6481 139.618 12.4861C139.366 12.3242 138.997 12.177 138.531 12.0532L98.5337 1.38803C98.0689 1.26408 97.517 1.16576 96.9096 1.09868C96.3023 1.03159 95.6513 0.99707 94.9939 0.99707C94.3365 0.99707 93.6856 1.03159 93.0782 1.09868C92.4709 1.16576 91.919 1.26408 91.4542 1.38803C90.9893 1.51198 90.6206 1.65913 90.369 1.82108C90.1174 1.98303 89.9879 2.15661 89.9879 2.3319C89.9879 2.50719 90.1174 2.68077 90.369 2.84272C90.6206 3.00467 90.9893 3.15182 91.4542 3.27577L122.922 11.6639L4.99968 11.6639C3.67368 11.6639 2.40199 11.8044 1.46437 12.0544C0.526744 12.3044 -3.24458e-06 12.6435 -3.24458e-06 12.9971Z" fill="#FFA800"/>
</svg>
