<svg width="1440" height="454" viewBox="0 0 1440 454" fill="none" xmlns="http://www.w3.org/2000/svg">
<path d="M4.23788 129.153C-0.978977 128.956 -6.06029 130.84 -9.88822 134.39C-13.7161 137.94 -15.9771 142.865 -16.1738 148.082C-21.3906 147.885 -26.4719 149.769 -30.2999 153.319C-34.1278 156.869 -36.3888 161.794 -36.5854 167.01C-36.7821 172.227 -34.8983 177.309 -31.3484 181.137C-27.7986 184.964 -22.8735 187.225 -17.6567 187.422L23.0016 188.955C10.7688 199.796 2.81595 214.655 0.579344 230.846C-1.65727 247.038 1.96981 263.496 10.8055 277.248C19.6412 291 33.1031 301.139 48.7599 305.834C64.4167 310.529 81.2364 309.471 96.1812 302.85L94.4328 349.232C94.2362 354.449 96.12 359.531 99.6698 363.359C103.22 367.186 108.145 369.447 113.362 369.644C118.578 369.841 123.66 367.957 127.488 364.407C131.316 360.857 133.577 355.932 133.773 350.715C138.99 350.912 144.071 349.028 147.899 345.478C151.727 341.929 153.988 337.003 154.185 331.787C159.402 331.983 164.483 330.099 168.311 326.55C172.139 323 174.4 318.075 174.597 312.858C174.793 307.641 172.909 302.56 169.36 298.732C165.81 294.904 160.885 292.643 155.668 292.446L115.009 290.914C127.242 280.072 135.195 265.214 137.432 249.022C139.668 232.83 136.041 216.372 127.206 202.62C118.37 188.868 104.908 178.73 89.2512 174.034C73.5944 169.339 56.7748 170.398 41.8299 177.018L43.5783 130.636C43.7749 125.419 41.8911 120.338 38.3413 116.51C34.7915 112.682 29.8664 110.421 24.6495 110.224C19.4327 110.028 14.3514 111.911 10.5234 115.461C6.69552 119.011 4.43453 123.936 4.23788 129.153V129.153ZM118.024 241.782C117.64 252.676 113.626 263.13 106.62 271.482C99.6144 279.834 90.0185 285.605 79.3571 287.879C68.6957 290.153 57.5802 288.798 47.7765 284.031C37.9729 279.264 30.0435 271.358 25.2481 261.568C26.3103 257.504 28.5525 253.846 31.6917 251.056C39.8314 245.729 49.5737 243.407 59.2408 244.491L78.0463 245.18C90.2237 246.525 102.477 243.426 112.551 236.454C114.325 234.993 115.927 233.335 117.327 231.513C117.926 234.901 118.166 238.344 118.043 241.783L118.024 241.782ZM112.782 218.321C111.715 222.377 109.474 226.027 106.339 228.813C98.1994 234.14 88.4571 236.462 78.79 235.378L59.9845 234.689C47.807 233.344 35.5534 236.443 25.4793 243.415C23.707 244.878 22.105 246.535 20.7034 248.356C18.6374 236.748 20.8354 224.785 26.8928 214.669C32.9501 204.553 42.4587 196.967 53.667 193.308C64.8754 189.648 77.0285 190.162 87.8879 194.755C98.7472 199.347 107.581 207.709 112.763 218.3L112.782 218.321Z" fill="white"/>
<path d="M-16.2114 149.081L-15.2121 149.119L-15.1745 148.119C-14.9878 143.168 -12.8417 138.493 -9.20824 135.123C-5.57478 131.754 -0.751617 129.966 4.20022 130.152L4.23788 129.153L5.23717 129.191C5.42383 124.239 7.56995 119.564 11.2034 116.194C14.8369 112.825 19.66 111.037 24.6119 111.223C29.5637 111.41 34.2386 113.556 37.6081 117.19C40.9775 120.823 42.7656 125.646 42.579 130.598L40.8306 176.981L40.7703 178.581L42.235 177.932C56.9616 171.409 73.5357 170.366 88.964 174.992C104.392 179.619 117.658 189.61 126.364 203.161C135.071 216.712 138.645 232.929 136.441 248.885C134.237 264.84 126.4 279.482 114.346 290.165L112.48 291.819L114.972 291.913L155.63 293.445C160.582 293.632 165.257 295.778 168.626 299.412C171.996 303.045 173.784 307.868 173.597 312.82C173.411 317.772 171.264 322.447 167.631 325.816C163.998 329.186 159.174 330.974 154.223 330.787L153.223 330.75L153.186 331.749C152.999 336.701 150.853 341.376 147.219 344.745C143.586 348.115 138.763 349.903 133.811 349.716L132.812 349.678L132.774 350.678C132.587 355.629 130.441 360.304 126.808 363.674C123.174 367.043 118.351 368.831 113.399 368.645C108.447 368.458 103.773 366.312 100.403 362.679C97.0336 359.045 95.2455 354.222 95.4321 349.27L97.1805 302.888L97.2408 301.287L95.7762 301.936C81.0495 308.46 64.4754 309.503 49.0471 304.876C33.6189 300.249 20.3535 290.259 11.6468 276.708C2.9401 263.157 -0.634019 246.939 1.56994 230.983C3.7739 215.028 11.6107 200.386 23.6649 189.703L25.5309 188.049L23.0393 187.955L-17.619 186.423C-22.5709 186.236 -27.2457 184.09 -30.6152 180.457C-33.9847 176.823 -35.7728 172 -35.5861 167.048C-35.3995 162.096 -33.2534 157.421 -29.6199 154.052C-25.9864 150.682 -21.1633 148.894 -16.2114 149.081ZM24.2806 261.315L24.1867 261.674L24.3501 262.008C29.2436 271.998 37.3351 280.066 47.3393 284.931C57.3434 289.795 68.6862 291.177 79.5657 288.857C90.4451 286.537 100.237 280.647 107.386 272.125C114.32 263.858 118.382 253.574 118.978 242.819L119.007 242.82L119.043 241.818C119.168 238.309 118.923 234.796 118.312 231.338L117.917 229.104L116.534 230.903C115.189 232.654 113.65 234.249 111.948 235.656C102.078 242.474 90.08 245.503 78.1561 244.186L78.1196 244.182L78.0829 244.18L59.3146 243.493C49.4286 242.394 39.468 244.772 31.1441 250.219L31.0824 250.259L31.0273 250.308C27.7405 253.23 25.3928 257.06 24.2806 261.315ZM113.749 218.575L113.889 218.044L113.596 217.728C108.3 206.983 99.3134 198.501 88.2774 193.834C77.1959 189.147 64.7942 188.623 53.3567 192.357C41.9191 196.091 32.216 203.833 26.0348 214.155C19.8536 224.478 17.6106 236.686 19.7189 248.532L20.1155 250.76L21.4959 248.966C22.8431 247.216 24.3818 245.622 26.0834 244.213C35.9526 237.395 47.9509 234.366 59.8747 235.683L59.9112 235.687L59.9479 235.689L78.7161 236.376C88.6022 237.475 98.5628 235.097 106.887 229.65L106.948 229.61L107.003 229.561C110.285 226.644 112.632 222.822 113.749 218.575Z" stroke="#FFA800" stroke-opacity="0.7" stroke-width="2"/>
<rect x="1256.64" y="-12" width="531" height="80.8199" rx="40.4099" transform="rotate(46.5158 1256.64 -12)" fill="#B18B8B"/>
<rect x="1388.64" y="13" width="531" height="80.8199" rx="40.4099" transform="rotate(46.5158 1388.64 13)" fill="#FFA800"/>
</svg>
