<svg width="29" height="30" viewBox="0 0 29 30" fill="none" xmlns="http://www.w3.org/2000/svg">
<path d="M2 16.3672L5.59097 27.0614C5.68268 27.3347 5.85949 27.5725 6.09624 27.7411C6.33299 27.9096 6.61764 28.0003 6.90972 28.0003H22.0903C22.3824 28.0003 22.667 27.9096 22.9038 27.7411C23.1405 27.5725 23.3173 27.3347 23.409 27.0614L27 16.3672" stroke="black" stroke-width="4"/>
<path d="M5.75481 16.4512H2.22009C2.19122 16.4513 2.16263 16.4457 2.13598 16.4348C2.10934 16.4238 2.08519 16.4078 2.06494 16.3875C2.04469 16.3672 2.02875 16.3432 2.01807 16.3167C2.00739 16.2903 2.00217 16.2621 2.00273 16.2336C2.11384 11.4278 5.91245 7.39245 11.0277 6.10254H17.9722C22.8868 7.49578 26.877 11.5482 26.9972 16.2343C26.9978 16.2627 26.9927 16.291 26.982 16.3174C26.9714 16.3439 26.9554 16.3679 26.9351 16.3881C26.9149 16.4084 26.8907 16.4244 26.864 16.4352C26.8373 16.4461 26.8087 16.4515 26.7798 16.4512H23.2451C21.6365 16.4511 20.0826 17.0264 18.8722 18.0703C17.6619 19.114 16.1083 19.6893 14.4999 19.6893C12.8916 19.6893 11.338 19.114 10.1277 18.0703C8.91727 17.0264 7.36336 16.4511 5.75481 16.4512V16.4512Z" stroke="black" stroke-width="4" stroke-linecap="round" stroke-linejoin="round"/>
<path d="M11.0972 6.10237C10.9948 5.60545 11.0058 5.09231 11.1293 4.60007C11.2529 4.10783 11.4859 3.64881 11.8115 3.2562C12.1372 2.86359 12.5473 2.54722 13.0123 2.32996C13.4773 2.1127 13.9854 2 14.5 2C15.0146 2 15.5227 2.1127 15.9877 2.32996C16.4526 2.54722 16.8628 2.86359 17.1884 3.2562C17.5141 3.64881 17.7471 4.10783 17.8707 4.60007C17.9942 5.09231 18.0052 5.60545 17.9028 6.10237" stroke="black" stroke-width="4" stroke-linecap="round" stroke-linejoin="round"/>
</svg>
